<?xml version="1.0" encoding="UTF-8" standalone="no"?>
<!-- Created with Inkscape (http://www.inkscape.org/) -->

<svg
   xmlns:osb="http://www.openswatchbook.org/uri/2009/osb"
   xmlns:dc="http://purl.org/dc/elements/1.1/"
   xmlns:cc="http://creativecommons.org/ns#"
   xmlns:rdf="http://www.w3.org/1999/02/22-rdf-syntax-ns#"
   xmlns:svg="http://www.w3.org/2000/svg"
   xmlns="http://www.w3.org/2000/svg"
   xmlns:xlink="http://www.w3.org/1999/xlink"
   xmlns:sodipodi="http://sodipodi.sourceforge.net/DTD/sodipodi-0.dtd"
   xmlns:inkscape="http://www.inkscape.org/namespaces/inkscape"
   width="210mm"
   height="297mm"
   id="svg2"
   version="1.1"
   inkscape:version="0.48.5 r10040"
   sodipodi:docname="dynamit.svg">
  <defs
     id="defs4">
    <linearGradient
       id="linearGradient5309"
       osb:paint="solid">
      <stop
         style="stop-color:#000000;stop-opacity:1;"
         offset="0"
         id="stop5311" />
    </linearGradient>
    <linearGradient
       inkscape:collect="always"
       xlink:href="#linearGradient5309"
       id="linearGradient5313"
       x1="276.79285"
       y1="468.07648"
       x2="391.77856"
       y2="468.07648"
       gradientUnits="userSpaceOnUse" />
  </defs>
  <sodipodi:namedview
     id="base"
     pagecolor="#ffffff"
     bordercolor="#666666"
     borderopacity="1.0"
     inkscape:pageopacity="0.0"
     inkscape:pageshadow="2"
     inkscape:zoom="0.98994949"
     inkscape:cx="174.68146"
     inkscape:cy="487.14322"
     inkscape:document-units="px"
     inkscape:current-layer="layer1"
     showgrid="false"
     inkscape:window-width="1920"
     inkscape:window-height="1028"
     inkscape:window-x="-8"
     inkscape:window-y="-8"
     inkscape:window-maximized="1" />
  <metadata
     id="metadata7">
    <rdf:RDF>
      <cc:Work
         rdf:about="">
        <dc:format>image/svg+xml</dc:format>
        <dc:type
           rdf:resource="http://purl.org/dc/dcmitype/StillImage" />
        <dc:title></dc:title>
      </cc:Work>
    </rdf:RDF>
  </metadata>
  <g
     inkscape:label="Ebene 1"
     inkscape:groupmode="layer"
     id="layer1">
    <path
       transform="translate(57.14286,312.85713)"
       sodipodi:type="arc"
       style="fill:#ff0000;fill-opacity:1;stroke:url(#linearGradient5313);stroke-width:0.69999999999999996;stroke-linecap:round;stroke-miterlimit:37.79999923999999800;stroke-opacity:1;stroke-dasharray:none"
       id="path2985-1"
       sodipodi:cx="334.28571"
       sodipodi:cy="468.07648"
       sodipodi:rx="57.142857"
       sodipodi:ry="35.714287"
       d="m 391.42856,468.07648 a 57.142857,35.714287 0 1 1 -114.28571,0 57.142857,35.714287 0 1 1 114.28571,0 z"
       inkscape:export-filename="C:\Users\Thomas\AndroidstudioProjects\Dicy\app\src\main\res\drawable\dynamite.png"
       inkscape:export-xdpi="39.104626"
       inkscape:export-ydpi="39.104626" />
    <path
       sodipodi:type="arc"
       style="fill:#ff7600;fill-opacity:1;stroke:#000000;stroke-width:0.69999999999999996;stroke-linecap:round;stroke-miterlimit:37.79999923999999800;stroke-opacity:1;stroke-dasharray:none"
       id="path2985"
       sodipodi:cx="334.28571"
       sodipodi:cy="468.07648"
       sodipodi:rx="57.142857"
       sodipodi:ry="35.714287"
       d="m 391.42856,468.07648 a 57.142857,35.714287 0 1 1 -114.28571,0 57.142857,35.714287 0 1 1 114.28571,0 z"
       transform="translate(57.14286,0)"
       inkscape:export-filename="C:\Users\Thomas\AndroidstudioProjects\Dicy\app\src\main\res\drawable\dynamite.png"
       inkscape:export-xdpi="39.104626"
       inkscape:export-ydpi="39.104626" />
    <path
       style="fill:#ff0000;stroke:#ff0000;stroke-width:1px;stroke-linecap:butt;stroke-linejoin:miter;stroke-opacity:1;fill-opacity:1"
       d="m 447.49758,783.66161 1.01015,-311.12699"
       id="path3005"
       inkscape:connector-curvature="0"
       inkscape:export-filename="C:\Users\Thomas\AndroidstudioProjects\Dicy\app\src\main\res\drawable\dynamite.png"
       inkscape:export-xdpi="39.104626"
       inkscape:export-ydpi="39.104626" />
    <path
       style="fill:#ff0000;stroke:#ff0000;stroke-width:1px;stroke-linecap:butt;stroke-linejoin:miter;stroke-opacity:1;fill-opacity:1"
       d="m 335.37065,784.67176 0,-309.10668"
       id="path3007"
       inkscape:connector-curvature="0"
       inkscape:export-filename="C:\Users\Thomas\AndroidstudioProjects\Dicy\app\src\main\res\drawable\dynamite.png"
       inkscape:export-xdpi="39.104626"
       inkscape:export-ydpi="39.104626" />
    <path
       style="fill:none;stroke:#ffffff;stroke-width:6.90000000000000040;stroke-linecap:butt;stroke-linejoin:miter;stroke-opacity:1;stroke-miterlimit:4;stroke-dasharray:none"
       d="m 391.93919,470.51432 1.01015,-91.92389"
       id="path5317"
       inkscape:connector-curvature="0"
       inkscape:export-filename="C:\Users\Thomas\AndroidstudioProjects\Dicy\app\src\main\res\drawable\dynamite.png"
       inkscape:export-xdpi="39.104626"
       inkscape:export-ydpi="39.104626" />
    <path
       sodipodi:type="star"
       style="fill:#ffb800;fill-opacity:1;stroke:#fe0000;stroke-opacity:1"
       id="path5319"
       sodipodi:sides="55"
       sodipodi:cx="-305.06607"
       sodipodi:cy="326.0625"
       sodipodi:r1="30.904724"
       sodipodi:r2="15.452363"
       sodipodi:arg1="0.19739556"
       sodipodi:arg2="0.25451543"
       inkscape:flatsided="false"
       inkscape:rounded="0"
       inkscape:randomized="0"
       d="m -274.7615,332.12342 -15.35,-2.17038 14.46158,5.58533 -15.00255,-3.906 13.73064,7.19742 -14.4595,-5.59069 12.82069,8.71567 -13.72797,-7.20251 11.74361,10.12031 -12.81745,-8.72043 10.51343,11.39302 -11.73985,-10.12468 9.1462,12.5172 -10.50921,-11.39692 7.65973,13.47819 -9.14155,-12.52059 6.0734,14.26349 -7.65472,-13.48104 4.4079,14.86282 -6.06811,-14.26573 2.68493,15.26841 -4.40238,-14.86446 0.92697,15.47494 -2.67927,-15.2694 -0.84309,15.47974 -0.92122,-15.47529 -2.60215,15.28273 0.84884,-15.47942 -4.32729,14.88649 2.60782,-15.28177 -5.99601,14.29619 4.33281,-14.88489 -7.58657,13.51951 6.00132,-14.29396 -9.07823,12.56658 7.59159,-13.51669 -10.45154,11.44982 9.0829,-12.5632 -11.6886,10.1838 10.45579,-11.44594 -12.77327,8.78502 11.69237,-10.17946 -13.69143,7.27172 12.77653,-8.78029 -14.43109,5.66362 13.69412,-7.26664 -14.98263,3.98168 14.4332,-5.65826 -15.33885,2.24783 14.98411,-3.97611 -15.4951,0.48468 15.33968,-2.24214 -15.44935,-1.28478 15.49528,-0.47893 -15.20219,-3.03751 15.44887,1.29052 -14.75685,-4.75062 15.20106,3.04314 -14.11913,-6.40181 14.75509,4.7561 -13.29735,-7.96954 14.11676,6.40705 -12.30222,-9.43338 13.29439,7.97448 -11.1467,-10.77424 12.29871,9.43795 -9.84587,-11.97464 11.1427,10.77838 -8.41669,-13.01893 9.84143,11.97829 -6.87778,-13.8935 8.41185,13.02206 -5.24921,-14.58695 6.87263,13.89605 -3.55221,-15.09023 5.24379,14.5889 -1.8089,-15.39679 3.54661,15.09154 -0.042,-15.50262 1.80318,15.39746 1.72543,-15.40637 0.0362,15.50264 3.47038,-15.10925 -1.73115,15.40572 5.17009,-14.61518 -3.47599,15.10797 6.80239,-13.93057 -5.17551,14.61326 8.34601,-13.06435 -6.80756,13.92804 9.78084,-12.02782 -8.35087,13.06125 11.08815,-10.83448 -9.7853,12.02418 12.25092,-9.49991 -11.09217,10.83037 13.25396,-8.04149 -12.25444,9.49537 14.08424,-6.47824 -13.25695,8.03657 14.73089,-4.83052 -14.08664,6.473 15.18551,-3.11984 -14.73268,4.82505 15.44216,-1.36849 -15.18667,3.11421 15.4975,0.40071 -15.44266,1.36275 15.3508,2.16468 -15.49735,-0.40646 z"
       inkscape:transform-center-x="0.0011704475"
       inkscape:transform-center-y="0.012540853"
       transform="matrix(0.52107778,0,0,0.54584077,551.25867,206.80052)"
       inkscape:export-filename="C:\Users\Thomas\AndroidstudioProjects\Dicy\app\src\main\res\drawable\dynamite.png"
       inkscape:export-xdpi="39.104626"
       inkscape:export-ydpi="39.104626" />
  </g>
  <g
     inkscape:groupmode="layer"
     id="layer2"
     inkscape:label="Ebene">
    <path
       style="fill:#ff0000;fill-opacity:1;stroke:#000000;stroke-width:0.70710677000000000;stroke-linecap:round;stroke-miterlimit:37.79999923999999800;stroke-opacity:1;stroke-dasharray:none"
       d="m 440.96062,762.45321 c -10.98023,-11.9253 -31.46825,-18.72578 -53.17713,-17.65079 -19.99271,0.99 -34.39385,6.32726 -45.06012,16.69989 l -5.95258,5.78871 0,-143.43769 0,-143.43769 3.0814,4.19005 c 8.82576,12.00117 29.26463,19.62016 52.47699,19.56183 23.07362,-0.058 43.49397,-8.51655 52.16518,-21.60797 l 2.88813,-4.3604 -0.28391,142.47607 c -0.15615,78.36183 -0.38343,143.64144 -0.50508,145.06577 -0.20813,2.43708 -0.54011,2.24331 -5.63288,-3.28778 l 0,0 z"
       id="path3779"
       inkscape:connector-curvature="0"
       inkscape:export-filename="C:\Users\Thomas\AndroidstudioProjects\Dicy\app\src\main\res\drawable\dynamite.png"
       inkscape:export-xdpi="39.104626"
       inkscape:export-ydpi="39.104626" />
    <rect
       style="fill:#ff0000;fill-opacity:1;stroke:none"
       id="rect5315"
       width="107.07617"
       height="87.88327"
       x="337.39093"
       y="682.64636"
       inkscape:export-filename="C:\Users\Thomas\AndroidstudioProjects\Dicy\app\src\main\res\drawable\dynamite.png"
       inkscape:export-xdpi="39.104626"
       inkscape:export-ydpi="39.104626" />
  </g>
</svg>
