<?xml version="1.0" encoding="UTF-8" standalone="no"?>
<!-- Created with Inkscape (http://www.inkscape.org/) -->

<svg
   xmlns:dc="http://purl.org/dc/elements/1.1/"
   xmlns:cc="http://creativecommons.org/ns#"
   xmlns:rdf="http://www.w3.org/1999/02/22-rdf-syntax-ns#"
   xmlns:svg="http://www.w3.org/2000/svg"
   xmlns="http://www.w3.org/2000/svg"
   xmlns:sodipodi="http://sodipodi.sourceforge.net/DTD/sodipodi-0.dtd"
   xmlns:inkscape="http://www.inkscape.org/namespaces/inkscape"
   width="210mm"
   height="297mm"
   id="svg3785"
   version="1.1"
   inkscape:version="0.48.5 r10040"
   sodipodi:docname="Neues Dokument 4">
  <defs
     id="defs3787" />
  <sodipodi:namedview
     id="base"
     pagecolor="#ffffff"
     bordercolor="#666666"
     borderopacity="1.0"
     inkscape:pageopacity="0.0"
     inkscape:pageshadow="2"
     inkscape:zoom="1.4"
     inkscape:cx="77.956524"
     inkscape:cy="529.69536"
     inkscape:document-units="px"
     inkscape:current-layer="layer1"
     showgrid="false"
     inkscape:window-width="1920"
     inkscape:window-height="1148"
     inkscape:window-x="1672"
     inkscape:window-y="-8"
     inkscape:window-maximized="1" />
  <metadata
     id="metadata3790">
    <rdf:RDF>
      <cc:Work
         rdf:about="">
        <dc:format>image/svg+xml</dc:format>
        <dc:type
           rdf:resource="http://purl.org/dc/dcmitype/StillImage" />
        <dc:title></dc:title>
      </cc:Work>
    </rdf:RDF>
  </metadata>
  <g
     inkscape:label="Ebene 1"
     inkscape:groupmode="layer"
     id="layer1">
    <path
       style="fill:#ffff00;stroke:none;stroke-width:1px;stroke-linecap:butt;stroke-linejoin:miter;stroke-opacity:1;fill-opacity:1"
       d="m 26.428573,307.36218 7.85714,-7.14285 16.42857,-5.71429 13.57143,-3.57143 11.42857,0.71429 12.85715,4.28571 5,10 1.42857,7.85714 -5.71429,7.14286 -5.71428,6.42857 -23.57143,26.42857 -5.71429,7.85715 -2.14286,8.57143 -2.85714,12.14285 0,17.14286 42.85714,-0.71429 -2.14285,-12.14285 5,-10 9.285707,-10.71429 33.57143,-36.42857 5,-13.57143 0,-19.28571 -5,-15.71429 -15,-15.71428 L 100,254.50504 80.000003,251.6479 l -22.14286,2.85714 -35,9.28571 z"
       id="path4820"
       inkscape:connector-curvature="0" />
    <path
       sodipodi:type="arc"
       style="fill:#ffff00;fill-opacity:1;stroke:none"
       id="path5035"
       sodipodi:cx="325"
       sodipodi:cy="446.64789"
       sodipodi:rx="26.428572"
       sodipodi:ry="26.428572"
       d="m 351.42857,446.64789 a 26.428572,26.428572 0 1 1 -0.001,-0.24385"
       sodipodi:start="0"
       sodipodi:end="6.2739584"
       sodipodi:open="true"
       transform="translate(-252.14285,-5.7142853)" />
  </g>
</svg>
